# xmcd
#
# Track frame offsets:
#	150
#	20097
#	37842
#	57750
#	72455
#	88560
#	108354
#	128685
#	141467
#	161412
#	179160
#	199050
#	213747
#	229852
#	249640
#	269935
#
# Disc length: 3771 seconds
#
# Revision: 1
# Processed by: cddbd v1.5.1PL2 Copyright (c) Steve Scherf et al.
# Submitted via: audiograbber 1.83.01
#
DISCID=f70eb910
DTITLE=Various Artist - Sc3059
DYEAR=1900
DGENRE=Country
TTITLE0=Loveless, Patty - To Have You Back Again
TTITLE1=Byrd, Tracy - I'm From The Country
TTITLE2=Keith, Toby - Dream Walkin'
TTITLE3=Sellers, Jason - That Does It
TTITLE4=Lonestar - Say When
TTITLE5=Sawyer Brown - Another Side
TTITLE6=Sons Of The Desert - Leaving October
TTITLE7=Austin, Sherrie - Put Your Heart Into It
TTITLE8=Loveless, Patty (Vocal) - To Have You Back Again
TTITLE9=Byrd, Tracy (Vocal) - I'm From The Country
TTITLE10=Keith, Toby (Vocal) - Dream Walkin'
TTITLE11=Sellers, Jason (Vocal) - That Does It
TTITLE12=Lonestar (Vocal) - Say When
TTITLE13=Sawyer Brown (Vocal) - Another Side
TTITLE14=Sons Of The Desert (Vocal) - Leaving October
TTITLE15=Austin, Sherrie (Vocal) - Put Your Heart Into It
EXTD=
EXTT0=
EXTT1=
EXTT2=
EXTT3=
EXTT4=
EXTT5=
EXTT6=
EXTT7=
EXTT8=
EXTT9=
EXTT10=
EXTT11=
EXTT12=
EXTT13=
EXTT14=
EXTT15=
PLAYORDER=
